<svg height="auto" viewBox="0 0 2000 1400" xmlns="http://www.w3.org/2000/svg"><path d="M0 1400h106.667v-11.27q0-4-4-4H4q-4 0-4 4ZM133.333 1400H240v-51.103q0-4-4-4h-98.667q-4 0-4 4ZM266.667 1400h106.666v-116.045q0-4-4-4h-98.666q-4 0-4 4ZM400 1400h106.667v-281.386q0-4-4-4H404q-4 0-4 4ZM533.333 1400H640v-219.72q0-4-4-4h-98.667q-4 0-4 4ZM666.667 1400h106.666V935.065q0-4-4-4h-98.666q-4 0-4 4ZM800 1400h106.667V850.366q0-4-4-4H804q-4 0-4 4ZM933.333 1400H1040V915.386q0-4-4-4h-98.667q-4 0-4 4ZM1066.667 1400h106.666V669.527q0-4-4-4h-98.666q-4 0-4 4ZM1200 1400h106.667V645.314q0-4-4-4H1204q-4 0-4 4ZM1333.333 1400H1440V562.618q0-4-4-4h-98.667q-4 0-4 4ZM1466.667 1400h106.666V367.492q0-4-4-4h-98.666q-4 0-4 4ZM1600 1400h106.667V232.445q0-4-4-4H1604q-4 0-4 4ZM1733.333 1400H1840V689.41q0-4-4-4h-98.667q-4 0-4 4ZM1866.667 1400h106.666V149.626q0-4-4-4h-98.666q-4 0-4 4Z" fill="#d87280"/></svg>
