<svg height="auto" viewBox="0 0 300 150" xmlns="http://www.w3.org/2000/svg"><path d="M0 150h12M15 150h12v-3.025q0-4-4-4h-4q-4 0-4 4ZM30 150h12v-8.19q0-4-4-4h-4q-4 0-4 4ZM45 150h12v-13.878q0-4-4-4h-4q-4 0-4 4ZM60 150h12v-13.049q0-4-4-4h-4q-4 0-4 4ZM75 150h12v-26.395q0-4-4-4h-4q-4 0-4 4ZM90 150h12v-32.393q0-4-4-4h-4q-4 0-4 4ZM105 150h12V98.015q0-4-4-4h-4q-4 0-4 4ZM120 150h12V98.257q0-4-4-4h-4q-4 0-4 4ZM135 150h12V94.947q0-4-4-4h-4q-4 0-4 4ZM150 150h12V80.486q0-4-4-4h-4q-4 0-4 4ZM165 150h12V68.633q0-4-4-4h-4q-4 0-4 4ZM180 150h12V99.835q0-4-4-4h-4q-4 0-4 4ZM195 150h12V87.353q0-4-4-4h-4q-4 0-4 4ZM210 150h12V52.231q0-4-4-4h-4q-4 0-4 4ZM225 150h12V70.709q0-4-4-4h-4q-4 0-4 4ZM240 150h12V86.587q0-4-4-4h-4q-4 0-4 4ZM255 150h12V54.262q0-4-4-4h-4q-4 0-4 4ZM270 150h12V28.883q0-4-4-4h-4q-4 0-4 4ZM285 150h12V31.967q0-4-4-4h-4q-4 0-4 4Z" fill="#ec939f"/></svg>
