<svg height="auto" viewBox="0 0 2000 1400" xmlns="http://www.w3.org/2000/svg"><path d="M0 1385.635c21-10.786 63-31.81 105-53.928s63-45.778 105-56.66c42-10.883 63 9.67 105 2.248s63 1.976 105-39.356 63-132.837 105-167.304c42-34.467 63-1.5 105-5.03 42-3.529 63 22.194 105-12.615s63-132.623 105-161.428c42-28.805 63 28.393 105 17.404 42-10.99 63-50.888 105-72.35 42-21.464 63 3.333 105-34.965 42-38.299 63-155.675 105-156.529 42-.854 63 110.428 105 152.26 42 41.832 63 137.946 105 56.9 42-81.046 63-378.07 105-462.128 42-84.059 63-14.628 105 41.834s63 209.477 105 240.477c42 30.999 63-68.836 105-85.48 42-16.645 84 1.805 105 2.256l5 808.759H0Z" fill="#d872801a"/><path d="M0 1385.635c21-10.786 63-31.81 105-53.928s63-45.778 105-56.66c42-10.883 63 9.67 105 2.248s63 1.976 105-39.356 63-132.837 105-167.304c42-34.467 63-1.5 105-5.03 42-3.529 63 22.194 105-12.615s63-132.623 105-161.428c42-28.805 63 28.393 105 17.404 42-10.99 63-50.888 105-72.35 42-21.464 63 3.333 105-34.965 42-38.299 63-155.675 105-156.529 42-.854 63 110.428 105 152.26 42 41.832 63 137.946 105 56.9 42-81.046 63-378.07 105-462.128 42-84.059 63-14.628 105 41.834s63 209.477 105 240.477c42 30.999 63-68.836 105-85.48 42-16.645 84 1.805 105 2.256" fill="none" stroke="#d87280" stroke-width="4"/><g fill="#d87280"><circle cy="1385.635" r="8"/><circle cx="105" cy="1331.707" r="8"/><circle cx="210" cy="1275.047" r="8"/><circle cx="315" cy="1277.295" r="8"/><circle cx="420" cy="1237.939" r="8"/><circle cx="525" cy="1070.635" r="8"/><circle cx="630" cy="1065.605" r="8"/><circle cx="735" cy="1052.99" r="8"/><circle cx="840" cy="891.562" r="8"/><circle cx="945" cy="908.966" r="8"/><circle cx="1050" cy="836.615" r="8"/><circle cx="1155" cy="801.651" r="8"/><circle cx="1260" cy="645.122" r="8"/><circle cx="1365" cy="797.382" r="8"/><circle cx="1470" cy="854.282" r="8"/><circle cx="1575" cy="392.154" r="8"/><circle cx="1680" cy="433.988" r="8"/><circle cx="1785" cy="674.465" r="8"/><circle cx="1890" cy="588.984" r="8"/><circle cx="1995" cy="591.241" r="8"/></g></svg>
