<svg height="auto" viewBox="0 0 500 250" xmlns="http://www.w3.org/2000/svg"><path d="M0 249.208c5.2-1.27 15.6-3.292 26-6.352 10.4-3.06 15.6-5.91 26-8.95 10.4-3.038 15.6-.89 26-6.243 10.4-5.354 15.6-17.173 26-20.524 10.4-3.35 15.6 4.344 26 3.77 10.4-.574 15.6-5.322 26-6.64 10.4-1.318 15.6 4.368 26 .051 10.4-4.316 15.6-11.187 26-21.634 10.4-10.447 15.6-24.095 26-30.601s15.6-6.313 26-1.93c10.4 4.384 15.6 21.513 26 23.846 10.4 2.334 15.6 3.314 26-12.177 10.4-15.49 15.6-51.863 26-65.276 10.4-13.414 15.6 2.994 26-1.79 10.4-4.786 15.6-25.58 26-22.133 10.4 3.445 15.6 35.45 26 39.36 10.4 3.91 15.6-22.476 26-19.812 10.4 2.665 15.6 49.908 26 33.135 10.4-16.773 20.8-93.6 26-117L500 250H0Z" fill="#ec939f1a"/><path d="M0 249.208c5.2-1.27 15.6-3.292 26-6.352 10.4-3.06 15.6-5.91 26-8.95 10.4-3.038 15.6-.89 26-6.243 10.4-5.354 15.6-17.173 26-20.524 10.4-3.35 15.6 4.344 26 3.77 10.4-.574 15.6-5.322 26-6.64 10.4-1.318 15.6 4.368 26 .051 10.4-4.316 15.6-11.187 26-21.634 10.4-10.447 15.6-24.095 26-30.601s15.6-6.313 26-1.93c10.4 4.384 15.6 21.513 26 23.846 10.4 2.334 15.6 3.314 26-12.177 10.4-15.49 15.6-51.863 26-65.276 10.4-13.414 15.6 2.994 26-1.79 10.4-4.786 15.6-25.58 26-22.133 10.4 3.445 15.6 35.45 26 39.36 10.4 3.91 15.6-22.476 26-19.812 10.4 2.665 15.6 49.908 26 33.135 10.4-16.773 20.8-93.6 26-117" fill="none" stroke="#ec939f" stroke-width="2"/><g fill="#ec939f"><circle cy="249.208" r="6"/><circle cx="26" cy="242.856" r="6"/><circle cx="52" cy="233.907" r="6"/><circle cx="78" cy="227.663" r="6"/><circle cx="104" cy="207.139" r="6"/><circle cx="130" cy="210.909" r="6"/><circle cx="156" cy="204.269" r="6"/><circle cx="182" cy="204.32" r="6"/><circle cx="208" cy="182.686" r="6"/><circle cx="234" cy="152.085" r="6"/><circle cx="260" cy="150.156" r="6"/><circle cx="286" cy="174.001" r="6"/><circle cx="312" cy="161.824" r="6"/><circle cx="338" cy="96.548" r="6"/><circle cx="364" cy="94.757" r="6"/><circle cx="390" cy="72.625" r="6"/><circle cx="416" cy="111.985" r="6"/><circle cx="442" cy="92.173" r="6"/><circle cx="468" cy="125.308" r="6"/><circle cx="494" cy="8.308" r="6"/></g></svg>
