<svg id="visual" viewBox="0 0 900 600" width="900" height="600" xmlns="http://www.w3.org/2000/svg" xmlns:xlink="http://www.w3.org/1999/xlink" version="1.1"><rect x="0" y="0" width="900" height="600" fill="#fcf2f3"></rect><path d="M0 155L21.5 156.7C43 158.3 86 161.7 128.8 169.5C171.7 177.3 214.3 189.7 257.2 203.7C300 217.7 343 233.3 385.8 229C428.7 224.7 471.3 200.3 514.2 194.3C557 188.3 600 200.7 642.8 197.2C685.7 193.7 728.3 174.3 771.2 176.5C814 178.7 857 202.3 878.5 214.2L900 226L900 0L878.5 0C857 0 814 0 771.2 0C728.3 0 685.7 0 642.8 0C600 0 557 0 514.2 0C471.3 0 428.7 0 385.8 0C343 0 300 0 257.2 0C214.3 0 171.7 0 128.8 0C86 0 43 0 21.5 0L0 0Z" fill="#f3d6da"></path><path d="M0 145L21.5 143.7C43 142.3 86 139.7 128.8 149.5C171.7 159.3 214.3 181.7 257.2 192.2C300 202.7 343 201.3 385.8 197.2C428.7 193 471.3 186 514.2 179.7C557 173.3 600 167.7 642.8 166C685.7 164.3 728.3 166.7 771.2 160.3C814 154 857 139 878.5 131.5L900 124L900 0L878.5 0C857 0 814 0 771.2 0C728.3 0 685.7 0 642.8 0C600 0 557 0 514.2 0C471.3 0 428.7 0 385.8 0C343 0 300 0 257.2 0C214.3 0 171.7 0 128.8 0C86 0 43 0 21.5 0L0 0Z" fill="#f4d1d5"></path><path d="M0 110L21.5 112.5C43 115 86 120 128.8 125.2C171.7 130.3 214.3 135.7 257.2 141C300 146.3 343 151.7 385.8 152.5C428.7 153.3 471.3 149.7 514.2 150.2C557 150.7 600 155.3 642.8 150.2C685.7 145 728.3 130 771.2 121.7C814 113.3 857 111.7 878.5 110.8L900 110L900 0L878.5 0C857 0 814 0 771.2 0C728.3 0 685.7 0 642.8 0C600 0 557 0 514.2 0C471.3 0 428.7 0 385.8 0C343 0 300 0 257.2 0C214.3 0 171.7 0 128.8 0C86 0 43 0 21.5 0L0 0Z" fill="#f4cbd0"></path><path d="M0 100L21.5 100.7C43 101.3 86 102.7 128.8 103.5C171.7 104.3 214.3 104.7 257.2 106.5C300 108.3 343 111.7 385.8 111.5C428.7 111.3 471.3 107.7 514.2 101.3C557 95 600 86 642.8 78.8C685.7 71.7 728.3 66.3 771.2 65C814 63.7 857 66.3 878.5 67.7L900 69L900 0L878.5 0C857 0 814 0 771.2 0C728.3 0 685.7 0 642.8 0C600 0 557 0 514.2 0C471.3 0 428.7 0 385.8 0C343 0 300 0 257.2 0C214.3 0 171.7 0 128.8 0C86 0 43 0 21.5 0L0 0Z" fill="#f4c5cb"></path><path d="M0 29L21.5 30C43 31 86 33 128.8 36.5C171.7 40 214.3 45 257.2 49.8C300 54.7 343 59.3 385.8 63C428.7 66.7 471.3 69.3 514.2 68.2C557 67 600 62 642.8 62.3C685.7 62.7 728.3 68.3 771.2 71.2C814 74 857 74 878.5 74L900 74L900 0L878.5 0C857 0 814 0 771.2 0C728.3 0 685.7 0 642.8 0C600 0 557 0 514.2 0C471.3 0 428.7 0 385.8 0C343 0 300 0 257.2 0C214.3 0 171.7 0 128.8 0C86 0 43 0 21.5 0L0 0Z" fill="#f4bfc6"></path></svg>