<svg id="visual" viewBox="0 0 900 600" width="900" height="600" xmlns="http://www.w3.org/2000/svg" xmlns:xlink="http://www.w3.org/1999/xlink" version="1.1"><rect x="0" y="0" width="900" height="600" fill="#f7f9fd"></rect><path d="M0 250L21.5 249.5C43 249 86 248 128.8 244.5C171.7 241 214.3 235 257.2 228.2C300 221.3 343 213.7 385.8 211.8C428.7 210 471.3 214 514.2 218.3C557 222.7 600 227.3 642.8 222.3C685.7 217.3 728.3 202.7 771.2 199.7C814 196.7 857 205.3 878.5 209.7L900 214L900 0L878.5 0C857 0 814 0 771.2 0C728.3 0 685.7 0 642.8 0C600 0 557 0 514.2 0C471.3 0 428.7 0 385.8 0C343 0 300 0 257.2 0C214.3 0 171.7 0 128.8 0C86 0 43 0 21.5 0L0 0Z" fill="#c0d2f2"></path><path d="M0 175L21.5 176.8C43 178.7 86 182.3 128.8 177.8C171.7 173.3 214.3 160.7 257.2 164C300 167.3 343 186.7 385.8 190.7C428.7 194.7 471.3 183.3 514.2 174C557 164.7 600 157.3 642.8 159.5C685.7 161.7 728.3 173.3 771.2 174.5C814 175.7 857 166.3 878.5 161.7L900 157L900 0L878.5 0C857 0 814 0 771.2 0C728.3 0 685.7 0 642.8 0C600 0 557 0 514.2 0C471.3 0 428.7 0 385.8 0C343 0 300 0 257.2 0C214.3 0 171.7 0 128.8 0C86 0 43 0 21.5 0L0 0Z" fill="#b4cbf4"></path><path d="M0 132L21.5 133.5C43 135 86 138 128.8 137.2C171.7 136.3 214.3 131.7 257.2 127C300 122.3 343 117.7 385.8 116.7C428.7 115.7 471.3 118.3 514.2 126C557 133.7 600 146.3 642.8 150C685.7 153.7 728.3 148.3 771.2 147.3C814 146.3 857 149.7 878.5 151.3L900 153L900 0L878.5 0C857 0 814 0 771.2 0C728.3 0 685.7 0 642.8 0C600 0 557 0 514.2 0C471.3 0 428.7 0 385.8 0C343 0 300 0 257.2 0C214.3 0 171.7 0 128.8 0C86 0 43 0 21.5 0L0 0Z" fill="#a9c4f5"></path><path d="M0 125L21.5 126.8C43 128.7 86 132.3 128.8 130.5C171.7 128.7 214.3 121.3 257.2 113.3C300 105.3 343 96.7 385.8 90.3C428.7 84 471.3 80 514.2 81.2C557 82.3 600 88.7 642.8 95.3C685.7 102 728.3 109 771.2 111.7C814 114.3 857 112.7 878.5 111.8L900 111L900 0L878.5 0C857 0 814 0 771.2 0C728.3 0 685.7 0 642.8 0C600 0 557 0 514.2 0C471.3 0 428.7 0 385.8 0C343 0 300 0 257.2 0C214.3 0 171.7 0 128.8 0C86 0 43 0 21.5 0L0 0Z" fill="#9dbef7"></path><path d="M0 81L21.5 81.8C43 82.7 86 84.3 128.8 80.8C171.7 77.3 214.3 68.7 257.2 68.7C300 68.7 343 77.3 385.8 80.5C428.7 83.7 471.3 81.3 514.2 78.8C557 76.3 600 73.7 642.8 69.7C685.7 65.7 728.3 60.3 771.2 58C814 55.7 857 56.3 878.5 56.7L900 57L900 0L878.5 0C857 0 814 0 771.2 0C728.3 0 685.7 0 642.8 0C600 0 557 0 514.2 0C471.3 0 428.7 0 385.8 0C343 0 300 0 257.2 0C214.3 0 171.7 0 128.8 0C86 0 43 0 21.5 0L0 0Z" fill="#91b7f8"></path><path d="M0 27L21.5 31.3C43 35.7 86 44.3 128.8 48C171.7 51.7 214.3 50.3 257.2 49.2C300 48 343 47 385.8 48.2C428.7 49.3 471.3 52.7 514.2 53.2C557 53.7 600 51.3 642.8 51.2C685.7 51 728.3 53 771.2 52.2C814 51.3 857 47.7 878.5 45.8L900 44L900 0L878.5 0C857 0 814 0 771.2 0C728.3 0 685.7 0 642.8 0C600 0 557 0 514.2 0C471.3 0 428.7 0 385.8 0C343 0 300 0 257.2 0C214.3 0 171.7 0 128.8 0C86 0 43 0 21.5 0L0 0Z" fill="#85b0fa"></path></svg>