<svg id="visual" viewBox="0 0 900 600" width="900" height="600" xmlns="http://www.w3.org/2000/svg" xmlns:xlink="http://www.w3.org/1999/xlink" version="1.1"><path d="M0 61L13.7 59C27.3 57 54.7 53 82 53C109.3 53 136.7 57 163.8 57C191 57 218 53 245.2 53C272.3 53 299.7 57 327 63C354.3 69 381.7 77 409 76C436.3 75 463.7 65 491 57C518.3 49 545.7 43 573 42C600.3 41 627.7 45 654.8 51C682 57 709 65 736.2 67C763.3 69 790.7 65 818 61C845.3 57 872.7 53 886.3 51L900 49L900 0L886.3 0C872.7 0 845.3 0 818 0C790.7 0 763.3 0 736.2 0C709 0 682 0 654.8 0C627.7 0 600.3 0 573 0C545.7 0 518.3 0 491 0C463.7 0 436.3 0 409 0C381.7 0 354.3 0 327 0C299.7 0 272.3 0 245.2 0C218 0 191 0 163.8 0C136.7 0 109.3 0 82 0C54.7 0 27.3 0 13.7 0L0 0Z" fill="#f1a7b0"></path><path d="M0 157L13.7 165C27.3 173 54.7 189 82 192C109.3 195 136.7 185 163.8 179C191 173 218 171 245.2 179C272.3 187 299.7 205 327 218C354.3 231 381.7 239 409 249C436.3 259 463.7 271 491 273C518.3 275 545.7 267 573 253C600.3 239 627.7 219 654.8 210C682 201 709 203 736.2 200C763.3 197 790.7 189 818 193C845.3 197 872.7 213 886.3 221L900 229L900 47L886.3 49C872.7 51 845.3 55 818 59C790.7 63 763.3 67 736.2 65C709 63 682 55 654.8 49C627.7 43 600.3 39 573 40C545.7 41 518.3 47 491 55C463.7 63 436.3 73 409 74C381.7 75 354.3 67 327 61C299.7 55 272.3 51 245.2 51C218 51 191 55 163.8 55C136.7 55 109.3 51 82 51C54.7 51 27.3 55 13.7 57L0 59Z" fill="#f4bfc6"></path><path d="M0 421L13.7 409C27.3 397 54.7 373 82 370C109.3 367 136.7 385 163.8 395C191 405 218 407 245.2 403C272.3 399 299.7 389 327 379C354.3 369 381.7 359 409 359C436.3 359 463.7 369 491 377C518.3 385 545.7 391 573 388C600.3 385 627.7 373 654.8 361C682 349 709 337 736.2 345C763.3 353 790.7 381 818 394C845.3 407 872.7 405 886.3 404L900 403L900 227L886.3 219C872.7 211 845.3 195 818 191C790.7 187 763.3 195 736.2 198C709 201 682 199 654.8 208C627.7 217 600.3 237 573 251C545.7 265 518.3 273 491 271C463.7 269 436.3 257 409 247C381.7 237 354.3 229 327 216C299.7 203 272.3 185 245.2 177C218 169 191 171 163.8 177C136.7 183 109.3 193 82 190C54.7 187 27.3 171 13.7 163L0 155Z" fill="#f9d4d7"></path><path d="M0 475L13.7 466C27.3 457 54.7 439 82 435C109.3 431 136.7 441 163.8 448C191 455 218 459 245.2 452C272.3 445 299.7 427 327 418C354.3 409 381.7 409 409 417C436.3 425 463.7 441 491 453C518.3 465 545.7 473 573 467C600.3 461 627.7 441 654.8 425C682 409 709 397 736.2 404C763.3 411 790.7 437 818 446C845.3 455 872.7 447 886.3 443L900 439L900 401L886.3 402C872.7 403 845.3 405 818 392C790.7 379 763.3 351 736.2 343C709 335 682 347 654.8 359C627.7 371 600.3 383 573 386C545.7 389 518.3 383 491 375C463.7 367 436.3 357 409 357C381.7 357 354.3 367 327 377C299.7 387 272.3 397 245.2 401C218 405 191 403 163.8 393C136.7 383 109.3 365 82 368C54.7 371 27.3 395 13.7 407L0 419Z" fill="#f9d4d7"></path><path d="M0 529L13.7 529C27.3 529 54.7 529 82 526C109.3 523 136.7 517 163.8 518C191 519 218 527 245.2 522C272.3 517 299.7 499 327 490C354.3 481 381.7 481 409 492C436.3 503 463.7 525 491 531C518.3 537 545.7 527 573 522C600.3 517 627.7 517 654.8 511C682 505 709 493 736.2 499C763.3 505 790.7 529 818 533C845.3 537 872.7 521 886.3 513L900 505L900 437L886.3 441C872.7 445 845.3 453 818 444C790.7 435 763.3 409 736.2 402C709 395 682 407 654.8 423C627.7 439 600.3 459 573 465C545.7 471 518.3 463 491 451C463.7 439 436.3 423 409 415C381.7 407 354.3 407 327 416C299.7 425 272.3 443 245.2 450C218 457 191 453 163.8 446C136.7 439 109.3 429 82 433C54.7 437 27.3 455 13.7 464L0 473Z" fill="#f4bfc6"></path><path d="M0 601L13.7 601C27.3 601 54.7 601 82 601C109.3 601 136.7 601 163.8 601C191 601 218 601 245.2 601C272.3 601 299.7 601 327 601C354.3 601 381.7 601 409 601C436.3 601 463.7 601 491 601C518.3 601 545.7 601 573 601C600.3 601 627.7 601 654.8 601C682 601 709 601 736.2 601C763.3 601 790.7 601 818 601C845.3 601 872.7 601 886.3 601L900 601L900 503L886.3 511C872.7 519 845.3 535 818 531C790.7 527 763.3 503 736.2 497C709 491 682 503 654.8 509C627.7 515 600.3 515 573 520C545.7 525 518.3 535 491 529C463.7 523 436.3 501 409 490C381.7 479 354.3 479 327 488C299.7 497 272.3 515 245.2 520C218 525 191 517 163.8 516C136.7 515 109.3 521 82 524C54.7 527 27.3 527 13.7 527L0 527Z" fill="#f1a7b0"></path></svg>