<svg xmlns:rdf="http://www.w3.org/1999/02/22-rdf-syntax-ns#" xmlns="http://www.w3.org/2000/svg" xmlns:cc="http://creativecommons.org/ns#" xmlns:dc="http://purl.org/dc/elements/1.1/" xml:space="preserve" height="37.242" viewBox="0 0 204.87125 37.2425" width="204.87" version="1.1"><g transform="matrix(1.25 0 0 -1.25 -592.92 613.51)"><path d="m91.062 1.0391c-11.552 0-17.666 9.2759-17.666 17.984 0 9.784 6.943 17.258 16.739 17.258 9.895 0 17.405-7.309 17.405-18.092 0-10.206-7.51-17.15-16.478-17.15zm-89.55 0.7734v1.1992c4.0975 0.3088 4.4085 0.6671 4.461 6.3184v18.656c0 5.642-0.4096 6.009-4.7696 6.319v1.197h11.926c3.934 0 7.248-0.519 9.896-1.973 3.002-1.706 4.817-4.304 4.817-7.976 0-5.237-4.25-8.037-8.965-8.711v-0.1c2.48-0.624 6.781-2.849 6.781-7.4119 0-2.59-0.927-4.4541-2.687-5.6953-1.714-1.1988-3.842-1.8223-7.571-1.8223h-13.888zm35.445 0v1.1992c4.149 0.31 4.564 0.6671 4.564 6.3184v18.656c0 5.642-0.415 6.009-4.771 6.319v1.195h13.791v-1.195c-4.254-0.31-4.668-0.677-4.668-6.319v-7.304h2.799c1.609 0 2.437 0.518 3.26 1.861 1.453 2.436 3.634 6.264 5.24 8.607 1.966 2.844 3.785 4.661 9.74 4.821h0.725l0.109-0.989c-1.872-0.463-2.804-1.296-3.889-2.591-1.402-1.558-2.492-2.948-4.357-5.7-1.552-2.276-3.675-5.855-4.613-7.414 4.2-1.707 6.847-4.766 6.847-9.068 0-3.005-1.355-5.3334-3.423-6.6309-1.914-1.2975-4.873-1.7656-8.184-1.7656h-13.17zm75.603 0v1.1973c2.96 0.31 3.73 0.6701 5.13 4.9726l8.97 27.829h1.45l8.44-25.239 0.11-0.105 9.32 25.344h1.41c4.35-14.25 8.13-26.166 8.6-27.465 1.71-4.7115 2.07-4.9212 5.49-5.3362v-1.1973h-10.99v1.1973l1.51 0.205c2.32 0.2575 2.59 0.8837 1.87 3.8887-0.89 3.7275-3.9 14.662-6.01 21.196l-0.12-0.001-9.37-25.963-1.25-0.0001-8.29 26.012h-0.1l-7-22.075c-0.72-2.2846-0.41-2.7494 1.92-3.0582l1.61-0.205v-1.1973h-12.7zm55.09 0v1.1973c2.17 0.1562 3.56 0.5153 4.56 1.7578 0.93 1.1875 0.98 2.0221 0.98 5.7554v11.241c0 5.445-0.21 8.247-0.41 9.849-0.27 1.812-1.61 2.585-4.46 2.692v1.195h12.44v-1.195c-3.43-0.157-4.82-0.88-5.08-2.692-0.21-1.602-0.42-4.404-0.42-9.849v-13.207l0.11-0.0004 22.5 27.308h1.34v-20.32c0-5.443 0.2-8.2313 0.41-9.8438 0.26-1.81 1.61-2.5852 4.45-2.6914v-1.1973h-12.43v1.1973c3.41 0.1562 4.82 0.8814 5.08 2.6914 0.21 1.6125 0.41 4.4008 0.41 9.8438v12.389h-0.1l-21.82-26.122-7.56 0.0005zm-77.929 0.9395c7.407 0 12.799 6.1643 12.799 17.359 0 9.642-5.08 14.455-11.297 14.455-7.567 0-12.803-7.047-12.803-17.05 0-9.7391 5.184-14.764 11.301-14.764zm-76.084 0.5683c6.122 0 7.412 3.4694 7.412 6.5781 0 4.2476-2.487 6.5786-7.461 6.5786h-3.266v-11.5c0-1.0379 0.159-1.2422 0.463-1.3422 0.419-0.16 1.147-0.3145 2.852-0.3145zm35.607 0c3.883 0 7.822 2.1751 7.822 7.6117 0 2.546-0.775 5.081-3 6.843-1.406 1.139-3.059 1.403-5.185 1.403h-3.008v-14.2c0-1.0382 0.155-1.2986 0.463-1.3999 0.417-0.1537 1.144-0.2578 2.908-0.2578zm-38.922 14.666h3.006c5.34 0 9.488 2.588 9.488 8.235 0 5.496-3.685 7.674-8.033 7.674-3.784 0.048-4.461-1.139-4.461-4.612v-11.297z" transform="matrix(.8 0 0 -.8 474.34 490.81)" fill="#4e3629"/></g></svg>