<svg xmlns="http://www.w3.org/2000/svg" height="150.69" width="152" viewBox="0 0 152 150.69"><g transform="matrix(1.25 0 0 -1.25 -.00015450 150.69)"><g style="" transform="translate(.87038 .87038)"><path d="m50.18 4.1113c-16.221 0-33.095 4.4261-46.383 12.137v86.611c13.286 7.7106 30.158 12.135 46.383 12.135l5.2188-0.16406c7.0062-0.39575 14.023-1.5572 20.859-3.457 7.5621-2.1006 14.629-5.0452 20.488-8.5117v-1.9961l-24.52-8.1445c-7.0526 2.3513-14.444 3.5566-22.047 3.5566-9.3087 0-18.181-1.754-26.363-5.209l-0.43359-0.18359v-62.668l0.43359-0.18359c8.1772-3.4526 17.049-5.2012 26.363-5.2012 9.2379 0 18.166 1.7466 26.543 5.1992l0.44141 0.18164v35.924c0.88898 0.29362 17.917 5.905 19.582 6.4551v-54.348c-12.83-7.6036-30.196-12.141-46.565-12.141zm50.906 27.609v18.73c8.5869 0.21818 16.893 1.9365 24.701 5.1582l0.43945 0.18359v7.1562h19.584v-19.129c-12.35-7.309-28.9-11.775-44.72-12.098zm-28.24 3.6504c-7.0921 2.0611-13.836 4.8791-19.59 8.2168v38.361c3.0279 0.99807 73.365 24.203 73.365 24.203v14.949l-0.4414 0.1836c-8.3803 3.4538-17.309 5.2051-26.541 5.2051-9.311 0-18.178-1.7517-26.359-5.209l-0.43359-0.18359v-4.3398c-6.2762 1.4948-12.902 2.4303-19.59 2.6543v13.662c13.287 7.7048 30.161 12.129 46.383 12.129 16.369 0 33.736-4.5335 46.564-12.127v-41.439c-0.96-0.308-73.354-24.18-73.354-24.18v-32.08z" transform="matrix(.8 0 0 -.8 0 119.2)" stroke="#000" stroke-miterlimit="5" stroke-width="7.5934" fill="none"/><path d="m50.301 3.9883c-16.221 0-33.093 4.426-46.381 12.137v86.613c13.286 7.7106 30.156 12.135 46.381 12.135l5.2207-0.16407c7.0062-0.39574 14.023-1.5592 20.859-3.459 7.5621-2.1006 14.629-5.0432 20.488-8.5098v-1.9961l-24.52-8.1465c-7.0526 2.3513-14.446 3.5566-22.049 3.5566-9.3087 0-18.179-1.7521-26.361-5.207l-0.43359-0.18359v-62.668l0.43359-0.18359c8.1772-3.4526 17.047-5.2031 26.361-5.2031 9.2379 0 18.168 1.7486 26.545 5.2012l0.44141 0.18164v35.922c0.88898 0.29362 17.917 5.9069 19.582 6.457v-54.35c-12.83-7.6047-30.198-12.142-46.567-12.142zm50.908 27.609v18.73c8.5869 0.21818 16.891 1.9365 24.699 5.1582l0.44141 0.18359v7.1562h19.582v-19.127c-12.35-7.309-28.9-11.777-44.72-12.1zm-28.243 3.653c-7.0921 2.0611-13.836 4.8791-19.59 8.2168v38.361c3.0279 0.99807 73.367 24.201 73.367 24.201v14.949l-0.44141 0.18359c-8.3803 3.4538-17.309 5.2051-26.541 5.2051-9.311 0-18.178-1.7517-26.359-5.209l-0.43555-0.18359v-4.3398c-6.2762 1.4948-12.902 2.4323-19.59 2.6562v13.66c13.287 7.7048 30.163 12.129 46.385 12.129 16.369 0 33.736-4.5335 46.564-12.127v-41.439c-0.95-0.321-73.353-24.191-73.353-24.191v-32.08z" transform="matrix(.8 0 0 -.8 0 119.2)" fill="#c34500"/></g></g></svg>