<svg xmlns="http://www.w3.org/2000/svg" height="223.3" viewBox="0 0 249.99998 223.30072" width="250"><g transform="matrix(1.25 0 0 -1.25 -1279.2 608.55)"><g transform="translate(.32246 -.64491)"><path d="m1220 486.21-84.078-0.0342 0.01-19.007 2.7526-1.0052c1.3535-0.49065 2.3109-1.6985 2.7526-2.6627 0.1742-0.37908 0.2573-0.81736 0.2607-1.3342 0-0.77069-0.1969-1.6826-0.5806-2.7082 0 0 0.1719 0.12181 0.2084 0.14572-0.5601-1.0963-1.2944-3.0224-2.6388-6.597l-15.455-41.064c-3.5461 9.4008-17.921 47.499-17.921 47.499-0.3859 1.0268-0.5828 1.9398-0.5828 2.7162 0 0.51114 0.089 0.95625 0.2572 1.3251 0.4451 0.96763 1.4003 2.1766 2.747 2.665l2.7526 1.0029-0.01 19.019-86.472-0.0342 0.01-18.814 2.311-1.1657c0.1821-0.0979 5.2138-2.8642 8.1816-11.567 2.147-6.3078 33.902-90.523 43.584-116.19 0 0.007 0.2357-0.62839 0.2357-0.62839 2.6615-7.0523 1.8852-7.4178 0.3404-8.1543-0.01-0.005-2.3872-1.1452-2.3872-1.1452l0.01-18.411 93.957 0.0364-0.01 18.329-2.2768 1.168c-0.6921 0.35176-1.3569 0.69328-1.3569 2.1368 0 1.1452 0.4178 2.9826 1.5789 6.0699l1.4287 3.7931c26.243 69.739 40.874 108.83 42.311 113.05 2.9621 8.7167 8.1554 11.571 8.2078 11.6 0 0.001 2.2495 1.1361 2.2495 1.1361s0.024 2.5716 0.024 2.5728v16.252h-2.3975z" fill="#002664"/><path d="m1181.6 478.04-58.48-147.13-57.388 147.13h-7.9084l61.843-159.71 6.5935 0.15596 63.312 159.55h-7.9722z" fill="#3db7e4"/><path d="m1211.4 473.71c-3.0645-2.6433-7.1832-7.4041-9.871-15.317-1.3991-4.0925-17.527-47.184-43.155-115.27l-0.4679-1.242-0.4758-1.2602c-1.6791-4.36-3.5791-9.3075-0.9836-14.096 0.6945-1.2818 1.637-2.3587 2.7948-3.2547v-1.7554l-71.304-0.0273v1.7565c1.1543 0.89477 2.098 1.9717 2.7868 3.2569 2.5955 4.7972 0.6955 9.7321-0.9825 14.089l-0.4838 1.2659-0.4462 1.1805c-25.688 68.096-41.858 111.2-43.257 115.29-2.6969 7.9152-6.8156 12.671-9.8892 15.312v1.267l63.827 0.0239v-1.1589c-2.3508-1.7725-3.7066-3.8136-4.4637-5.4666-1.2021-2.616-2.1743-6.9522 0.019-12.77l21.839-57.897 6.2452-17.757 7.1184 17.76 21.804 57.916c2.1823 5.8172 1.2135 10.157 0 12.765-0.7593 1.6575-2.1094 3.6975-4.4647 5.4677v1.1555l63.818 0.0216v-1.2636zm6.8395 8.3125-78.099-0.0262v-11.895c4.3532-1.9011 7.1001-6.2976 4.911-12.112-8.596-22.868-21.796-57.912-21.796-57.912s-13.221 35.034-21.84 57.893c-2.1925 5.816 0 10.33 4.9088 12.118l-0.01 11.897-78.103-0.0296v-12.049s6.6084-3.2114 10.271-13.967c2.3553-6.9123 41.108-109.61 43.781-116.69 2.1948-5.8183 3.7589-10.774-1.7816-13.408v-11.588l85.589 0.033v11.584c-5.108 2.6058-3.9776 7.5885-1.7884 13.409 2.6672 7.0854 41.343 109.81 43.695 116.72 3.6543 10.756 10.257 13.974 10.257 13.974l-0.01 12.046z" fill="#fff"/></g></g></svg>